<?xml version="1.0" encoding="iso-8859-1"?>
<!-- Uploaded to: SVG Repo, www.svgrepo.com, Generator: SVG Repo Mixer Tools -->
<svg height="800px" width="800px" version="1.1" id="Layer_1" xmlns="http://www.w3.org/2000/svg" xmlns:xlink="http://www.w3.org/1999/xlink" 
	 viewBox="0 0 511.882 511.882" xml:space="preserve">
<polygon style="fill:#FFCE54;" points="511.789,469.189 0,469.189 0.093,42.693 511.882,42.693 "/>
<path style="fill:#E6E9ED;" d="M191.917,64.016v106.616c0,5.89,4.772,10.669,10.661,10.669c5.89,0,10.662-4.78,10.662-10.669
	c0,5.89,4.772,10.669,10.662,10.669s10.662-4.78,10.662-10.669c0,5.89,4.772,10.669,10.662,10.669s10.662-4.78,10.662-10.669
	c0,5.89,4.78,10.669,10.662,10.669c5.89,0,10.669-4.78,10.669-10.669c0,5.89,4.781,10.669,10.654,10.669
	c5.89,0,10.67-4.78,10.67-10.669c0,5.89,4.764,10.669,10.669,10.669c5.874,0,10.653-4.78,10.653-10.669V64.016H191.917z"/>
<g>
	<path style="fill:#656D78;" d="M96.001,383.88H53.355c-5.89,0-10.662-4.765-10.662-10.654c0-5.889,4.772-10.669,10.662-10.669
		h42.646c5.889,0,10.669,4.78,10.669,10.669C106.67,379.116,101.89,383.88,96.001,383.88z"/>
	<path style="fill:#656D78;" d="M181.302,426.527H53.355c-5.89,0-10.662-4.765-10.662-10.654c0-5.889,4.772-10.669,10.662-10.669
		h127.947c5.889,0,10.661,4.78,10.661,10.669C191.963,421.762,187.191,426.527,181.302,426.527z"/>
</g>
<polygon style="fill:#434A54;" points="298.587,426.527 347.326,345.295 396.065,426.527 "/>
<polygon style="fill:#656D78;" points="339.203,426.527 404.188,312.803 469.173,426.527 "/>
<path style="fill:#F5F7FA;" d="M191.917,42.693v106.616c0,5.89,4.772,10.67,10.661,10.67c5.89,0,10.662-4.78,10.662-10.67
	c0,5.89,4.772,10.67,10.662,10.67s10.662-4.78,10.662-10.67c0,5.89,4.772,10.67,10.662,10.67s10.662-4.78,10.662-10.67
	c0,5.89,4.78,10.67,10.662,10.67c5.89,0,10.669-4.78,10.669-10.67c0,5.89,4.781,10.67,10.654,10.67c5.89,0,10.67-4.78,10.67-10.67
	c0,5.89,4.764,10.67,10.669,10.67c5.874,0,10.653-4.78,10.653-10.67V42.693H191.917z"/>
</svg>